<?xml version="1.0" encoding="UTF-8" standalone="no"?>
<svg
   id="Lager_2"
   data-name="Lager 2"
   viewBox="0 0 318.05 69.73"
   version="1.1"
   sodipodi:docname="play.svg"
   inkscape:version="1.2.2 (b0a8486541, 2022-12-01)"
   xmlns:inkscape="http://www.inkscape.org/namespaces/inkscape"
   xmlns:sodipodi="http://sodipodi.sourceforge.net/DTD/sodipodi-0.dtd"
   xmlns="http://www.w3.org/2000/svg"
   xmlns:svg="http://www.w3.org/2000/svg">
  <sodipodi:namedview
     id="namedview28"
     pagecolor="#ffffff"
     bordercolor="#666666"
     borderopacity="1.0"
     inkscape:showpageshadow="2"
     inkscape:pageopacity="0.0"
     inkscape:pagecheckerboard="0"
     inkscape:deskcolor="#d1d1d1"
     showgrid="false"
     showguides="true"
     inkscape:zoom="7.884751"
     inkscape:cx="160.62651"
     inkscape:cy="24.731282"
     inkscape:window-width="1920"
     inkscape:window-height="1025"
     inkscape:window-x="0"
     inkscape:window-y="0"
     inkscape:window-maximized="1"
     inkscape:current-layer="Lager_1-2" />
  <defs
     id="defs4">
    <style
       id="style2">
      .cls-1 {
        fill: #0a3c38;
      }
    </style>
  </defs>
  <g
     id="Lager_1-2"
     data-name="Lager 1">
    <g
       id="g12"
       style="fill:#06645c;fill-opacity:1;stroke:#124944;stroke-opacity:0.76504189;stroke-linejoin:bevel;stroke-width:1;stroke-dasharray:none">
      <polygon
         class="cls-1"
         points="46.22 69.73 76.88 69.73 61.49 32.47 46.22 69.73"
         id="polygon6"
         style="fill:#06645c;fill-opacity:1;stroke:#124944;stroke-opacity:0.76504189;stroke-linejoin:bevel;stroke-width:1;stroke-dasharray:none" />
      <path
         class="cls-1"
         d="M19.65,32.05c4.63,0,6.13,2.66,7.5,5.37,3.35,6.66,9.05,18.17,11.81,22.95,0,0,12.36-29.77,18.25-44.66.75-1.83,1.21-2.78,2.07-3.64.92-.92,1.61-1.28,2.82-1.28,1.29,0,1.95.28,2.95,1.28.86.86,1.7,3.12,2.73,5.61l13.24,33.3V2.25H0v29.33l19.65.47Z"
         id="path8"
         style="fill:#06645c;fill-opacity:1;stroke:#124944;stroke-opacity:0.76504189;stroke-linejoin:bevel;stroke-width:1;stroke-dasharray:none" />
      <path
         class="cls-1"
         d="M17.21,41.94l-17.21-.49v28.29h31.72"
         id="path10"
         style="fill:#06645c;fill-opacity:1;stroke:#124944;stroke-opacity:0.76504189;stroke-linejoin:bevel;stroke-width:1;stroke-dasharray:none" />
    </g>
    <path
       class="cls-1"
       d="M95.77,20.75h9.36l9.27,34.56,9.81-34.56h10.17l9.81,34.56,9.27-34.56h9.27l-13.23,46.35h-10.35l-9.81-34.38-9.9,34.38h-10.44l-13.23-46.35Z"
       id="path14"
       style="fill:#06645c;fill-opacity:1;stroke:#124944;stroke-opacity:0.76504189;stroke-linejoin:bevel;stroke-width:1;stroke-dasharray:none" />
    <path
       class="cls-1"
       d="M171.91,20.75h9v46.35h-9V20.75Z"
       id="path16"
       style="fill:#06645c;fill-opacity:1;stroke:#124944;stroke-opacity:0.76504189;stroke-linejoin:bevel;stroke-width:1;stroke-dasharray:none" />
    <path
       class="cls-1"
       d="M196.03,20.75h9v8.28l17.55-9.27v9.72l-17.55,8.73v28.89h-9V20.75Z"
       id="path18"
       style="fill:#06645c;fill-opacity:1;stroke:#124944;stroke-opacity:0.76504189;stroke-linejoin:bevel;stroke-width:1;stroke-dasharray:none" />
    <path
       class="cls-1"
       d="M226.53,43.97c0-13.68,9.36-24.03,23.4-24.03s22.14,10.71,22.14,22.95v4.23h-36.45c1.17,8.82,7.11,12.69,14.4,12.69s12.15-4.5,13.59-8.55l6.93,3.69c-1.98,5.13-8.28,12.96-20.52,12.96-14.22,0-23.49-10.44-23.49-23.94ZM262.7,39.56c-.09-5.76-4.95-11.7-12.87-11.7-6.84,0-12.42,4.05-13.95,11.7h26.82Z"
       id="path20"
       style="fill:#06645c;fill-opacity:1;stroke:#124944;stroke-opacity:0.76504189;stroke-linejoin:bevel;stroke-width:1;stroke-dasharray:none" />
    <path
       class="cls-1"
       d="M279.27,55.4l7.56-3.78c1.08,3.69,5.31,8.28,12.42,8.28,6.12,0,9.63-2.43,9.63-5.85,0-2.7-1.89-4.68-5.85-5.49l-9-1.71c-7.2-1.44-12.24-5.58-12.24-13.14,0-8.01,7.29-13.77,17.64-13.77,11.52,0,16.56,6.48,18.18,11.43l-7.47,3.6c-.72-3.42-4.41-7.2-10.8-7.2-5.49,0-8.82,2.52-8.82,5.76,0,2.97,2.16,4.59,5.49,5.22l9.45,1.89c8.28,1.62,12.6,6.75,12.6,13.14,0,8.37-7.47,14.13-18.99,14.13s-18-6.93-19.8-12.51Z"
       id="path22"
       style="fill:#06645c;fill-opacity:1;stroke:#124944;stroke-opacity:0.76504189;stroke-linejoin:bevel;stroke-width:1;stroke-dasharray:none" />
    <path
       class="cls-1"
       d="M176.41,0c3.78,0,6.57,2.79,6.57,6.57s-2.79,6.57-6.57,6.57-6.57-2.88-6.57-6.57,2.79-6.57,6.57-6.57Z"
       id="path24"
       style="fill:#06645c;fill-opacity:1;stroke:#124944;stroke-opacity:0.76504189;stroke-linejoin:bevel;stroke-width:1;stroke-dasharray:none" />
  </g>
</svg>
